<?xml version="1.0" encoding="UTF-8" standalone="no"?>
<svg
   xmlns:svg="http://www.w3.org/2000/svg"
   xmlns="http://www.w3.org/2000/svg"
   xmlns:sodipodi="http://sodipodi.sourceforge.net/DTD/sodipodi-0.dtd"
   xmlns:inkscape="http://www.inkscape.org/namespaces/inkscape"
   version="1.1"
   id="SysHeart"
   x="0px"
   y="0px"
   viewBox="0 0 490.4 490.4"
   style="enable-background:new 0 0 490.4 490.4;"
   xml:space="preserve"
   sodipodi:docname="SysHeart.svg"
   inkscape:version="1.0.1 (3bc2e813f5, 2020-09-07)"><defs /><sodipodi:namedview
     pagecolor="#ffffff"
     bordercolor="#666666"
     borderopacity="1"
     objecttolerance="10"
     gridtolerance="10"
     guidetolerance="10"
     inkscape:pageopacity="0"
     inkscape:pageshadow="2"
     inkscape:window-width="2400"
     inkscape:window-height="1284"
     id="nv1"
     showgrid="false"
     inkscape:zoom="1.7169658"
     inkscape:cx="245.2"
     inkscape:cy="245.2"
     inkscape:window-x="2391"
     inkscape:window-y="-9"
     inkscape:window-maximized="1"
     inkscape:current-layer="SysHeart" /><g
     style="fill:#606060;fill-opacity:1"><path
       d="M222.5,453.7c6.1,6.1,14.3,9.5,22.9,9.5c8.5,0,16.9-3.5,22.9-9.5L448,274c27.3-27.3,42.3-63.6,42.4-102.1    c0-38.6-15-74.9-42.3-102.2S384.6,27.4,346,27.4c-37.9,0-73.6,14.5-100.7,40.9c-27.2-26.5-63-41.1-101-41.1    c-38.5,0-74.7,15-102,42.2C15,96.7,0,133,0,171.6c0,38.5,15.1,74.8,42.4,102.1L222.5,453.7z"
       style="fill:#606060;fill-opacity:1"
       id="path1480" /></g></svg>
